<?xml version="1.0" encoding="utf-8"?>
<!-- Generator: Adobe Illustrator 26.0.1, SVG Export Plug-In . SVG Version: 6.00 Build 0)  -->
<svg version="1.1" id="Calque_1" xmlns="http://www.w3.org/2000/svg" xmlns:xlink="http://www.w3.org/1999/xlink" x="0px" y="0px"
	 viewBox="0 0 200 200" style="enable-background:new 0 0 200 200;" xml:space="preserve">
<style type="text/css">
	.st0{fill:#004866;}
	.st1{fill:#FFFFFF;}
	.st2{fill:#00FFFF;}
</style>
<path class="st0" d="M100,195.9L100,195.9C47,195.9,4.1,153,4.1,100S47,4.1,100,4.1S195.9,47,195.9,100S153,195.9,100,195.9"/>
<g>
	<path class="st1" d="M83.9,129.3c-7.5,0-13.7-6.1-13.7-13.7h5.4c0,4.6,3.7,8.3,8.3,8.3s8.3-3.7,8.3-8.3h5.4
		C97.5,123.1,91.4,129.3,83.9,129.3"/>
	<path class="st1" d="M73.1,96c-0.8,0-1.6,0.3-2.3,0.8c-0.7,0.5-1.2,1.2-1.5,2.1h7.4c-0.3-0.9-0.7-1.6-1.4-2.1
		C74.7,96.2,74,96,73.1,96 M82.4,100.9v1.5H69.2c0.2,1.1,0.7,1.9,1.4,2.6c0.7,0.6,1.5,0.9,2.5,0.9c1.8,0,3.1-0.7,3.8-2.1l5.1,1
		c-0.8,1.9-1.9,3.3-3.5,4.2c-1.5,0.9-3.4,1.4-5.5,1.4c-2.7,0-4.9-0.9-6.8-2.7c-1.8-1.8-2.8-4.1-2.8-6.9c0-2.8,0.9-5.1,2.8-6.9
		c1.8-1.8,4.1-2.7,6.8-2.7c2.6,0,4.8,0.9,6.6,2.6C81.5,95.7,82.4,98,82.4,100.9"/>
	<path class="st1" d="M93.8,96c-0.8,0-1.6,0.3-2.3,0.8c-0.7,0.5-1.2,1.2-1.5,2.1h7.4c-0.3-0.9-0.7-1.6-1.4-2.1
		C95.4,96.2,94.7,96,93.8,96 M103.1,100.9v1.5H89.9c0.2,1.1,0.7,1.9,1.4,2.6c0.7,0.6,1.5,0.9,2.5,0.9c1.8,0,3.1-0.7,3.8-2.1l5.1,1
		c-0.8,1.9-1.9,3.3-3.5,4.2s-3.4,1.4-5.5,1.4c-2.7,0-4.9-0.9-6.8-2.7c-1.8-1.8-2.8-4.1-2.8-6.9c0-2.8,0.9-5.1,2.8-6.9
		c1.8-1.8,4.1-2.7,6.8-2.7c2.6,0,4.8,0.9,6.6,2.6C102.1,95.7,103.1,98,103.1,100.9"/>
	<path class="st2" d="M34,89.5h-5.1l2.6-5.5h6.8L34,89.5z M31.3,96c-0.8,0-1.6,0.3-2.3,0.8c-0.7,0.5-1.2,1.2-1.5,2.1h7.4
		c-0.3-0.9-0.7-1.6-1.4-2.1C32.9,96.2,32.2,96,31.3,96 M40.6,100.9v1.5H27.4c0.2,1.1,0.7,1.9,1.4,2.6c0.7,0.6,1.5,0.9,2.5,0.9
		c1.8,0,3.1-0.7,3.8-2.1l5.1,1c-0.8,1.9-1.9,3.3-3.5,4.2c-1.5,0.9-3.4,1.4-5.5,1.4c-2.7,0-4.9-0.9-6.8-2.7c-1.8-1.8-2.8-4.1-2.8-6.9
		c0-2.8,0.9-5.1,2.8-6.9c1.8-1.8,4.1-2.7,6.8-2.7c2.6,0,4.8,0.9,6.6,2.6C39.6,95.7,40.6,98,40.6,100.9"/>
	<polygon class="st2" points="64,109.9 56.9,109.9 52.1,103.8 49.3,106.9 49.3,109.9 43.6,109.9 43.6,82.2 49.3,82.2 49.3,99.1 
		55.8,91.9 62.6,91.9 55.9,99.4 	"/>
	<path class="st2" d="M116.3,105.6c1.3,0,2.3-0.4,3.1-1.3c0.8-0.9,1.2-2,1.2-3.4c0-1.4-0.4-2.5-1.2-3.4c-0.8-0.9-1.9-1.3-3.1-1.3
		c-1.2,0-2.2,0.4-3.1,1.3c-0.9,0.9-1.3,2-1.3,3.3c0,1.4,0.4,2.5,1.3,3.4C114,105.1,115.1,105.6,116.3,105.6 M117.4,91.3
		c2.4,0,4.5,0.9,6.2,2.7c1.7,1.8,2.6,4.1,2.6,6.9c0,2.8-0.9,5.1-2.6,6.9c-1.7,1.8-3.8,2.7-6.2,2.7c-2.3,0-4.2-0.7-5.6-2.1v10.2h-5.8
		V91.9h5.8v1.5C113.3,92,115.1,91.3,117.4,91.3"/>
	<rect x="130.1" y="98.1" class="st2" width="11.9" height="4.9"/>
	<polygon class="st2" points="154.2,91 154.2,104.8 154.2,110 148.3,110 148.3,104.8 148.3,91 148.3,85.8 154.2,85.8 	"/>
	<polygon class="st2" points="178.3,91 170.4,91 170.4,110 164.5,110 164.5,91 156.7,91 156.7,85.8 178.3,85.8 	"/>
</g>
</svg>
